ply
format ascii 1.0
comment Created by Blender 2.79 (sub 0) - www.blender.org, source file: 'exroof.blend'
element vertex 16
property float x
property float y
property float z
property float nx
property float ny
property float nz
property float s
property float t
element face 6
property list uchar uint vertex_indices
end_header
0.500000 -0.500000 0.500000 0.000000 -0.000000 1.000000 0.999900 0.999900
-0.500000 0.500000 0.500000 0.000000 -0.000000 1.000000 0.000100 0.000100
-0.500000 -0.500000 0.500000 0.000000 -0.000000 1.000000 0.999900 0.000100
0.500000 -0.500000 0.500000 0.707107 0.000000 -0.707106 1.000000 1.000000
-0.500000 0.500000 -0.500000 0.707107 0.000000 -0.707106 0.003906 0.000000
0.499999 0.500000 0.500000 0.707107 0.000000 -0.707106 1.000000 0.000000
0.499999 0.500000 0.500000 -0.000000 1.000000 0.000000 0.000000 1.000000
-0.500000 0.500000 -0.500000 -0.000000 1.000000 0.000000 1.000000 0.000000
-0.500000 0.500000 0.500000 -0.000000 1.000000 0.000000 1.000000 1.000000
-0.500000 0.500000 0.500000 -1.000000 -0.000000 -0.000000 0.000000 1.000000
-0.500000 0.500000 -0.500000 -1.000000 -0.000000 -0.000000 0.000000 0.000000
-0.500000 -0.500000 0.500000 -1.000000 -0.000000 -0.000000 1.000000 1.000000
0.500000 -0.500000 0.500000 0.000000 -0.707107 -0.707107 1.000000 0.000000
-0.500000 -0.500000 0.500000 0.000000 -0.707107 -0.707107 1.000000 1.000000
-0.500000 0.500000 -0.500000 0.000000 -0.707107 -0.707107 -0.000000 1.000000
0.499999 0.500000 0.500000 0.000000 -0.000000 1.000000 0.000100 0.999900
3 0 1 2
3 3 4 5
3 6 7 8
3 9 10 11
3 12 13 14
3 0 15 1
