ply
format ascii 1.0
comment Created by Blender 2.79 (sub 0) - www.blender.org, source file: 'roof.blend'
element vertex 18
property float x
property float y
property float z
property float s
property float t
property uchar red
property uchar green
property uchar blue
element face 8
property list uchar uint vertex_indices
end_header
-0.500000 0.500000 -0.500000 0.999900 0.999900 255 0 0
0.500000 0.500000 0.500000 0.000100 0.000100 255 0 0
0.500000 0.500000 -0.500000 0.999900 0.000100 255 0 0
0.500000 -0.500000 -0.500000 0.003906 1.000000 255 0 0
-0.499999 0.500000 0.500000 1.000000 0.000000 255 0 0
-0.500000 0.500000 -0.500000 1.000000 1.000000 255 0 0
-0.499999 0.500000 0.500000 0.000000 1.000000 255 0 0
0.500000 -0.500000 0.500000 1.000000 0.000000 255 2 2
0.500000 0.500000 0.500000 1.000000 1.000000 255 0 0
0.500000 0.500000 0.500000 0.000100 0.999900 255 0 0
0.500000 -0.500000 -0.500000 0.999900 0.000100 255 1 1
0.500000 0.500000 -0.500000 0.999900 0.999900 255 0 0
-0.500000 0.500000 -0.500000 1.000000 0.000000 255 0 0
0.500000 0.500000 -0.500000 1.000000 1.000000 255 0 0
0.500000 -0.500000 -0.500000 -0.000000 1.000000 255 0 0
-0.499999 0.500000 0.500000 0.000100 0.999900 255 0 0
0.500000 -0.500000 0.500000 0.003906 0.000000 255 7 7
0.500000 -0.500000 0.500000 0.000100 0.000100 255 0 0
3 0 1 2
3 3 4 5
3 6 7 8
3 9 10 11
3 12 13 14
3 0 15 1
3 3 16 4
3 9 17 10
