ply
format ascii 1.0
comment Created by Blender 2.79 (sub 0) - www.blender.org, source file: ''
element vertex 22
property float x
property float y
property float z
property float nx
property float ny
property float nz
property float s
property float t
element face 12
property list uchar uint vertex_indices
end_header
-0.500000 0.500000 0.000000 -0.577349 0.577349 -0.577349 0.000000 0.000000
0.500000 -0.500000 -0.000000 0.707083 0.000000 -0.707083 1.000000 1.000000
-0.500000 -0.500000 -0.000000 -0.707083 0.000000 -0.707083 0.000000 1.000000
0.500000 -0.500000 0.500000 0.707083 0.000000 0.707083 1.000000 0.000000
-0.500000 0.500000 0.500000 -0.577349 0.577349 0.577349 0.000000 1.000000
-0.500000 -0.500000 0.500000 -0.707083 0.000000 0.707083 0.000000 0.000000
0.500000 0.500000 0.000000 0.577349 0.577349 -0.577349 1.000000 0.500000
0.500000 -0.500000 0.500000 0.707083 0.000000 0.707083 0.000000 1.000000
0.500000 -0.500000 -0.000000 0.707083 0.000000 -0.707083 0.000000 0.500000
-0.500000 -0.500000 -0.000000 -0.707083 0.000000 -0.707083 1.000000 0.500000
-0.500000 0.500000 0.000000 -0.577349 0.577349 -0.577349 0.000000 0.500000
-0.500000 0.500000 0.000000 -0.577349 0.577349 -0.577349 1.000000 0.500000
0.500000 0.500000 0.500000 0.577349 0.577349 0.577349 0.000000 1.000000
0.500000 0.500000 0.000000 0.577349 0.577349 -0.577349 0.000000 0.500000
0.500000 -0.500000 -0.000000 0.000000 -1.000000 0.000000 1.000000 0.500000
-0.500000 -0.500000 0.500000 0.000000 -1.000000 0.000000 0.000000 1.000000
-0.500000 -0.500000 -0.000000 0.000000 -1.000000 0.000000 0.000000 0.500000
0.500000 0.500000 0.000000 0.577349 0.577349 -0.577349 1.000000 0.000000
0.500000 0.500000 0.500000 0.577349 0.577349 0.577349 1.000000 1.000000
-0.500000 -0.500000 0.500000 -0.707083 0.000000 0.707083 1.000000 1.000000
-0.500000 0.500000 0.500000 -0.577349 0.577349 0.577349 1.000000 1.000000
0.500000 -0.500000 0.500000 0.000000 -1.000000 0.000000 1.000000 1.000000
3 0 1 2
3 3 4 5
3 6 7 8
3 9 4 10
3 11 12 13
3 14 15 16
3 0 17 1
3 3 18 4
3 6 18 7
3 9 19 4
3 11 20 12
3 14 21 15
