ply
format ascii 1.0
comment Created by Blender 2.79 (sub 0) - www.blender.org, source file: 'slab.down.blend'
element vertex 24
property float x
property float y
property float z
property float nx
property float ny
property float nz
property float s
property float t
property uchar red
property uchar green
property uchar blue
element face 12
property list uchar uint vertex_indices
end_header
-0.500000 -0.500000 -0.500000 0.000000 -1.000000 -0.000000 0.000071 0.000071 255 0 0
0.500000 -0.500000 0.000000 0.000000 -1.000000 -0.000000 0.999929 0.500000 255 0 0
-0.500000 -0.500000 0.000000 0.000000 -1.000000 -0.000000 0.000071 0.500000 255 0 0
-0.500000 -0.500000 -0.500000 1.000000 -0.000000 0.000000 1.000000 -0.003461 255 0 0
-0.500000 0.500000 0.000000 1.000000 -0.000000 0.000000 0.000000 0.496539 255 0 0
-0.500000 -0.500000 0.000000 1.000000 -0.000000 0.000000 1.000000 0.496539 255 0 0
0.500000 0.500000 0.000000 1.000000 0.000000 -0.000000 1.000000 0.496539 255 0 0
0.500000 -0.500000 -0.500000 1.000000 0.000000 -0.000000 0.000000 -0.003461 255 0 0
0.500000 0.500000 -0.500000 1.000000 0.000000 -0.000000 1.000000 -0.003461 255 0 0
0.500000 0.500000 -0.500000 0.000000 1.000000 0.000000 0.000000 -0.003461 255 0 0
-0.500000 0.500000 0.000000 0.000000 1.000000 0.000000 1.000000 0.496539 255 0 0
0.500000 0.500000 0.000000 0.000000 1.000000 0.000000 0.000000 0.496539 255 0 0
0.500000 -0.500000 -0.500000 -0.000000 0.000000 1.000000 1.000000 1.000000 255 0 0
-0.500000 0.500000 -0.500000 -0.000000 0.000000 1.000000 0.000000 0.000000 255 0 0
-0.500000 -0.500000 -0.500000 -0.000000 0.000000 1.000000 0.000000 1.000000 255 0 0
0.500000 -0.500000 -0.500000 -0.000000 -1.000000 -0.000000 0.999929 0.000071 255 0 0
-0.500000 0.500000 -0.500000 1.000000 0.000000 0.000000 0.000000 -0.003461 255 0 0
0.500000 -0.500000 0.000000 1.000000 0.000000 0.000000 0.000000 0.496539 255 0 0
-0.500000 0.500000 -0.500000 -0.000000 1.000000 0.000000 1.000000 -0.003461 255 0 0
0.500000 0.500000 -0.500000 -0.000000 0.000000 1.000000 1.000000 0.000000 255 0 0
-0.500000 0.500000 0.000000 0.000000 -0.000000 1.000000 0.000000 1.000000 255 0 0
-0.500000 -0.500000 0.000000 0.000000 -0.000000 1.000000 0.000000 0.000000 255 0 0
0.500000 -0.500000 0.000000 0.000000 -0.000000 1.000000 1.000000 0.000000 255 0 0
0.500000 0.500000 0.000000 0.000000 0.000000 1.000000 1.000000 1.000000 255 0 0
3 0 1 2
3 3 4 5
3 6 7 8
3 9 10 11
3 12 13 14
3 0 15 1
3 3 16 4
3 6 17 7
3 9 18 10
3 12 19 13
3 20 21 22
3 20 22 23
